<svg xmlns="http://www.w3.org/2000/svg" width="245.18" height="53.404" viewBox="0 0 245.18 53.404">
  <g id="Grupo_100" data-name="Grupo 100" transform="translate(-79 -24)">
    <path id="Caminho_32" data-name="Caminho 32" d="M503.573,68.814a2.225,2.225,0,0,0-2.228,2.228V68.814Z" transform="translate(-244.4 -20.39)" fill="#f2bc1b"/>
    <path id="Caminho_33" data-name="Caminho 33" d="M42.724,0H23.863a6.037,6.037,0,0,0-4.269,1.768l-8.912,8.913L1.768,19.594A6.037,6.037,0,0,0,0,23.863V40.48A12.924,12.924,0,0,0,12.924,53.4h29.8V42.724H12.864a2.183,2.183,0,0,1-2.183-2.183V12.675a1.99,1.99,0,0,1,1.994-1.994H42.724Z" transform="translate(79 24)" fill="#f2bc1b"/>
    <path id="Caminho_34" data-name="Caminho 34" d="M53.967,68.15a1.591,1.591,0,0,0,1.125,2.716H71.146V60.185H63.128a2.889,2.889,0,0,0-2.043.846Z" transform="translate(44.49 -14.823)" fill="#f2bc1b"/>
    <path id="Caminho_35" data-name="Caminho 35" d="M295.917,51.823a10.88,10.88,0,0,0-3.67-.6h-1.156a2.3,2.3,0,0,0-1.612.662l-5.657,5.583V51.647h-6.5V78.521h6.551s.031-15.96,0-19.38a2.213,2.213,0,0,1,2.158-1.676h4.075a5.536,5.536,0,0,1,2.618.624,5.342,5.342,0,0,1,2.98,5.182v15.25h6.562V61.891c0-4.919-2.41-8.666-6.354-10.068" transform="translate(-99.894 -9.04)"/>
    <path id="Caminho_36" data-name="Caminho 36" d="M453.3,27.3h-7.038v-7.3H453.3Zm-6.77,4.211h6.556V58.375h-6.556Z" transform="translate(-208.87 11.104)"/>
    <path id="Caminho_37" data-name="Caminho 37" d="M508.1,36.735c-2.1-3.539-5.762-5.664-10.638-5.664l-.608,0a2.3,2.3,0,0,0-1.591.656l-5.7,5.586s7.01,0,7.1,0c4.251-.008,6.989,2.761,6.989,7.625,0,4.952-2.881,8.206-7.252,8.206a6.739,6.739,0,0,1-6.277-3.758c-.636-1.238-.56-2.743-.56-4.452s.177-6.843.012-6.612V19.984h-6.5V58.372h6.5V55.008a5.788,5.788,0,0,0,.548.712,9.5,9.5,0,0,0,7.241,3.079c8.041,0,12.785-5.653,12.785-13.859a15.878,15.878,0,0,0-2.048-8.205" transform="translate(-232.615 11.109)"/>
    <path id="Caminho_38" data-name="Caminho 38" d="M583.588,53.109l-5.121,5.133V52.424h-6.5V79.3h6.562V66.458c0-2.87,0-5.4-.011-6.54a2.213,2.213,0,0,1,2.158-1.676h7.866V52.424l-3.346.012a2.283,2.283,0,0,0-1.612.673" transform="translate(-289.958 -9.816)"/>
    <path id="Caminho_39" data-name="Caminho 39" d="M648.142,61.256V78.529h-6.45v-4c-1.12,2.665-4.212,4.424-8.05,4.424-5.331,0-8.957-3.412-8.957-8.05,0-5.224,4.052-8.476,10.076-8.476h4.958a1.73,1.73,0,0,0,1.972-1.813c0-2.612-2.026-4.478-5.491-4.478s-5.544,2.186-5.65,4.584h-5.865c.32-5.331,4.852-9.488,11.835-9.488,6.823,0,11.622,3.944,11.622,10.021m-6.45,5.917v-.426h-6.024c-2.772,0-4.638,1.546-4.638,3.891,0,2.079,1.706,3.465,4.158,3.465,4.1,0,6.5-2.879,6.5-6.93" transform="translate(-323.962 -9.05)"/>
    <path id="Caminho_40" data-name="Caminho 40" d="M360.065,65.1c0-7.677,5.279-13.861,13.647-13.861,6.77,0,12.263,4.051,12.849,10.235h-6.5c-.479-2.665-3.092-4.584-6.184-4.584-4.532,0-6.984,3.519-6.984,8.21s2.505,8.209,7.091,8.209a5.964,5.964,0,0,0,6.13-4.425h6.61c-.852,5.864-6.077,10.076-13.007,10.076-8.369,0-13.647-6.184-13.647-13.86" transform="translate(-153.266 -9.053)"/>
    <path id="Caminho_41" data-name="Caminho 41" d="M192.012,53.608V29.725c0-4.371,2.4-6.716,6.77-6.716h18.072v6.077H200.915a1.71,1.71,0,0,0-1.866,1.866v7.2h14.287v6.077H199.05v8.1a1.71,1.71,0,0,0,1.866,1.866H217.44v6.13H198.782c-4.371,0-6.77-2.345-6.77-6.716" transform="translate(-44.86 9.157)"/>
  </g>
</svg>
